<svg xmlns="http://www.w3.org/2000/svg" version="1.1" viewBox="0 0 2880 2176" width="180" height="136">
<path transform="translate(2867)" d="m0 0h13v10h-3l-11 12-6 8h-2v2h-2v2h-2v2l-7 6-5 5-15 16-21 21-9 11-32 34-22 22-9 11-11 12-7 8-15 15-6 7-6 5-7 8-12 12-9 11-16 17-14 15-29 29-7 8-10 11-7 8-12 12-7 8-29 29-7 8-18 20-14 14-8 9h-2l-2 4-4 4h-2v2h-2l-2 4-7 7-7 8-12 14-11 11-5 6h-2l-2 4h-2l-2 4-26 26-7 8-9 10-1 2h-2l-2 4-7 7-7 8-33 33-2 3h-2l-2 4-9 11h-2l-2 4-13 13-7 8-32 32-7 8-10 11-1 2h-2l-2 4-19 19-2 3h-2l-2 4-8 7-22 24-7 8-12 13-11 12-29 29-7 8-18 20-7 8-24 24-3 4h-2l-1 3-5 5-16 17-7 8-7 7-7 8-40 40-9 11-16 17-7 7-7 8-25 25-7 8-18 20-8 8-7 8-29 29-7 8-9 10-7 8-15 16-29 29-7 8-14 15-7 8-12 12-7 8-28 28-7 8-9 10-7 8-8 8-5 6-6 5-6 7h-2l-2 4h-2l-1 3-4 4h-2l-2 4-4 5-3 3v2l-5 3-6 9-8 7-9 9-7 8-7 7h-2l-2 4-21 21-7 8-12 14-8 8-7 8-39 39-8 10-14 15-16 17-28 28-7 8-12 14-16 17-35 35-9 11-4 5h-2l-2 4-8 8-1 2h-2l-2 4-41 41-9 11-8 8-7 8-9 9-7 8-8 7-7 8-12 12-7 8-11 12-1 2h-2v2l-42 42-1 2h-2l-1 3-5 5-13 14-7 8-5 6-1 3-4 1v3l-4 2v2l-4 2v2l-5 3-21 21-7 8-3 5-2 2-5 4-7 8-9 10-13 16-13 4-52 11-52 10-100 20-236 47-87 17-62 12-188 38-52 10-38 8-72 14-47 10-15 4-2 2-1 5h-6v-2l-7-1v-2l5-2 3-1 2-6 7-13 10-14 9-12 10-14 7-11 13-18 9-12 13-18 14-19 13-18 10-13 8-11 14-19 16-22 10-13 7-10 14-19 13-18 10-13 11-16 10-13 28-38 12-17 24-32 12-17 22-30 10-13 13-18 9-12 8-11 10-14 12-16 10-14 14-19 9-12 14-19 10-14 13-18 10-13 12-17 12-16 10-14 10-13 24-33 13-18 9-12 13-18 28-38 12-16 10-14 9-12 14-19 12-17 8-10 8-11 7-10 12-16 7-10 13-17 11-15 10-14 12-17 8-10 8-11 13-18 14-19 10-14 7-9 10-14 11-15 8-11 10-13 9-12 8-11 11-15 10-14 18-24 14-19 11-16 8-10 8-11 13-18 10-14 9-12 10-13 13-18 10-14 14-19 10-13 4-6 9-12 12-17 10-13 6-8 11-15 9-12 12-17 9-12 11-15 14-19 8-12 11-14 28-38 9-13 5-6 11-7 12-5 64-21 46-14 50-15 25-8 73-23 33-10 31-10 160-50 80-25 42-13 65-20 57-18 36-11 31-10 72-22 31-10 33-10 21-7 112-35 56-17 192-60 56-17 31-10 149-46 37-11 16-5 19-7 15-8z" fill="#ffffff"/>
<path transform="translate(2735,1247)" d="m0 0 9 1-1 5-10 13-12 18-19 29-13 20-11 16-10 15-16 23-22 33-29 43-18 27-12 17-16 24-13 19-7 11-13 19-10 14-11 17-5 9-9 12-8 4-21 6-116 28-350 84-150 36-253 61-96 23-174 42-42 10-64 16-53 12-27 7-23 5h-6l-1-3 4-7 12-11 24-24 1-2h2v-2h2v-2h2l2-4 15-16 18-20 1-2h2l2-4 37-37 16-17 3-1 2-4 28-28 9-11 10-10 7-8 25-25 4-5 8-7 9-10h2l1-3 20-20 7-8 9-10 1-2h2l2-4 16-17 68-68 7-8 8-8 7-8 6-7h2l2-4 15-15 1-2h2l2-4 8-7 11-12 6-5 7-8 9-8 7-8 4-4h2l2-4 9-9 1-2h2l2-4 9-10 5-6h2l2-4 15-15 4-5 14-10 9-2 108-15 47-6 70-10 46-6 71-10 116-16 59-8 64-9 51-7 47-7 55-7 70-10 47-6 71-10 55-7 55-8z" fill="#ffffff"/>
<path transform="translate(0,2173)" d="m0 0h3v3h-3z" fill="#ffffff"/>
<path transform="translate(24,2175)" d="m0 0h5v1h-5z" fill="#ffffff"/>
<path transform="translate(1121,1868)" d="m0 0v3l-2-1z" fill="#ffffff"/>
<path transform="translate(1064,1928)" d="m0 0" fill="#ffffff"/>
<path transform="translate(1065,1927)" d="m0 0" fill="#ffffff"/>
<path transform="translate(1105,1885)" d="m0 0" fill="#ffffff"/>
<path transform="translate(1109,1881)" d="m0 0" fill="#ffffff"/>
<path transform="translate(1123,1866)" d="m0 0" fill="#ffffff"/>
<path transform="translate(1124,1865)" d="m0 0" fill="#ffffff"/>
<path transform="translate(1125,1864)" d="m0 0" fill="#ffffff"/>
<path transform="translate(1132,1856)" d="m0 0" fill="#ffffff"/>
<path transform="translate(1341,1636)" d="m0 0" fill="#ffffff"/>
<path transform="translate(1624,1336)" d="m0 0" fill="#ffffff"/>
</svg>